<svg xmlns="http://www.w3.org/2000/svg" width="120" height="120" fill="none"><g clip-path="url(#a)"><g clip-path="url(#b)"><path fill="#0F0F0F" d="M31.318 115.536h4.464V120h-4.464zM53.637 115.536h4.464V120h-4.464z"/><path fill="#0F0F0F" d="M53.637 111.073h4.464v4.464h-4.464zM31.318 111.073h4.464v4.464h-4.464zM53.637 106.609h4.464v4.464h-4.464zM53.637 102.145h4.464v4.464h-4.464zM58.101 102.145h4.464v4.464h-4.464z"/><path fill="#0F0F0F" d="M62.563 102.145h4.464v4.464h-4.464zM67.027 102.145h4.464v4.464h-4.464zM71.491 102.145h4.464v4.464h-4.464z"/><path fill="#0F0F0F" d="M75.954 102.145h4.464v4.464h-4.464zM80.419 102.145h4.464v4.464h-4.464z"/><path fill="#0F0F0F" d="M84.882 102.145h4.464v4.464h-4.464zM98.273 88.754h4.464v4.464h-4.464z"/><path fill="#0F0F0F" d="M98.273 84.291h4.464v4.464h-4.464zM98.273 79.827h4.464v4.464h-4.464zM89.346 102.145h4.464v4.464h-4.464z"/><path fill="#CDD1DC" d="M35.782 115.536h4.464V120h-4.464zM35.782 106.609h4.464v4.464h-4.464zM35.782 102.145h17.855v4.464H35.782zM40.246 93.218h8.927v4.464h-8.927zM40.246 79.827h4.464v4.464h-4.464zM44.709 84.291h4.464v4.464h-4.464zM58.101 88.754h4.464v4.464h-4.464z"/><path fill="#CDD1DC" d="M53.637 88.754h44.636v4.464H53.637z"/><path fill="#E3E8EE" d="M40.246 106.609h13.391v4.464H40.246zM40.246 97.682h8.927v4.464h-8.927zM40.246 84.291h4.464v4.464h-4.464z"/><path fill="#E3E8EE" d="M40.246 88.754h13.391v4.464H40.246zM49.173 93.218h49.1v4.464h-49.1zM44.709 75.364h53.564v4.464H44.709zM44.709 70.9h53.564v4.464H44.709zM22.391 66.436h75.882V70.9H22.391z"/><path fill="#E3E8EE" d="M22.391 61.973h80.346v4.464H22.391zM22.391 57.509h80.346v4.464H22.391zM22.391 53.045h80.346v4.464H22.391z"/><path fill="#E3E8EE" d="M22.391 48.582h80.346v4.464H22.391zM22.391 44.118h80.346v4.464H22.391zM22.391 39.654h80.346v4.464H22.391z"/><path fill="#E3E8EE" d="M22.391 35.191h80.346v4.464H22.391zM22.391 30.727h80.346v4.464H22.391z"/><path fill="#E3E8EE" d="M22.391 26.264h80.346v4.464H22.391z"/><path fill="#E3E8EE" d="M22.391 21.8h80.346v4.464H22.391zM22.391 17.336h75.882V21.8H22.391z"/><path fill="#E3E8EE" d="M22.391 12.873h75.882v4.464H22.391z"/><path fill="#E3E8EE" d="M26.855 8.409h66.954v4.464H26.855zM49.173 97.682h44.636v4.464H49.173zM40.246 115.536h13.391V120H40.246z"/><path fill="#CDD1DC" d="M35.782 97.682h4.464v4.464h-4.464zM35.782 93.218h4.464v4.464h-4.464zM35.782 88.754h4.464v4.464h-4.464z"/><path fill="#CDD1DC" d="M35.782 84.291h4.464v4.464h-4.464zM35.782 79.827h4.464v4.464h-4.464z"/><path fill="#CDD1DC" d="M35.782 75.364h4.464v4.464h-4.464zM44.709 75.364h4.464v4.464h-4.464zM44.709 70.9h4.464v4.464h-4.464zM22.391 66.436h26.782V70.9H22.391z"/><path fill="#CDD1DC" d="M22.391 61.973h17.855v4.464H22.391zM26.855 8.409h66.954v4.464H26.855z"/><path fill="#CDD1DC" d="M22.391 12.873h13.391v49.1H22.391zM35.782 111.073h17.855v4.464H35.782z"/><path fill="#0F0F0F" d="M31.318 106.609h4.464v4.464h-4.464zM31.318 102.145h4.464v4.464h-4.464z"/><path fill="#0F0F0F" d="M31.318 97.682h4.464v4.464h-4.464zM31.318 93.218h4.464v4.464h-4.464zM31.318 88.754h4.464v4.464h-4.464z"/><path fill="#0F0F0F" d="M31.318 84.291h4.464v4.464h-4.464zM31.318 79.827h4.464v4.464h-4.464z"/><path fill="#0F0F0F" d="M31.318 75.364h4.464v4.464h-4.464zM31.318 70.9h4.464v4.464h-4.464z"/><path fill="#0F0F0F" d="M26.855 70.9h4.464v4.464h-4.464zM22.391 70.9h4.464v4.464h-4.464zM17.928 66.436h4.464V70.9h-4.464z"/><path fill="#0F0F0F" d="M17.928 61.973h4.464v4.464h-4.464zM17.928 57.509h4.464v4.464h-4.464zM17.928 53.045h4.464v4.464h-4.464z"/><path fill="#0F0F0F" d="M17.928 48.582h4.464v4.464h-4.464zM17.928 44.118h4.464v4.464h-4.464zM17.928 39.654h4.464v4.464h-4.464z"/><path fill="#0F0F0F" d="M17.928 35.191h4.464v4.464h-4.464zM17.928 30.727h4.464v4.464h-4.464z"/><path fill="#0F0F0F" d="M17.928 26.264h4.464v4.464h-4.464z"/><path fill="#0F0F0F" d="M17.928 21.8h4.464v4.464h-4.464zM17.928 17.336h4.464V21.8h-4.464z"/><path fill="#0F0F0F" d="M17.928 12.873h4.464v4.464h-4.464z"/><path fill="#0F0F0F" d="M22.391 8.409h4.464v4.464h-4.464zM26.855 3.945h4.464v4.464h-4.464z"/><path fill="#0F0F0F" d="M31.318 3.945h4.464v4.464h-4.464z"/><path fill="#0F0F0F" d="M35.782 3.945h4.464v4.464h-4.464zM40.246 3.945h4.464v4.464h-4.464z"/><path fill="#0F0F0F" d="M44.709 3.945h4.464v4.464h-4.464zM49.173 3.945h4.464v4.464h-4.464zM53.637 3.945h4.464v4.464h-4.464zM58.101 3.945h4.464v4.464h-4.464z"/><path fill="#0F0F0F" d="M62.563 3.945h4.464v4.464h-4.464z"/><path fill="#CDD1DC" d="M67.027 66.436h4.464V70.9h-4.464zM80.419 66.436h4.464V70.9h-4.464z"/><path fill="#0F0F0F" d="M67.027 3.945h4.464v4.464h-4.464zM71.491 3.945h4.464v4.464h-4.464z"/><path fill="#0F0F0F" d="M75.954 3.945h4.464v4.464h-4.464zM80.419 3.945h4.464v4.464h-4.464z"/><path fill="#0F0F0F" d="M84.882 3.945h4.464v4.464h-4.464zM89.346 3.945h4.464v4.464h-4.464zM93.81 8.409h4.464v4.464H93.81z"/><path fill="#0F0F0F" d="M98.273 12.873h4.464v4.464h-4.464z"/><path fill="#0F0F0F" d="M98.273 17.336h4.464V21.8h-4.464zM102.737 21.8h4.464v4.464h-4.464z"/><path fill="#0F0F0F" d="M102.737 26.264h4.464v4.464h-4.464z"/><path fill="#0F0F0F" d="M102.737 30.727h4.464v4.464h-4.464zM102.737 35.191h4.464v4.464h-4.464z"/><path fill="#0F0F0F" d="M102.737 39.654h4.464v4.464h-4.464zM102.737 44.118h4.464v4.464h-4.464zM102.737 48.582h4.464v4.464h-4.464z"/><path fill="#0F0F0F" d="M102.737 53.045h4.464v4.464h-4.464zM102.737 57.509h4.464v4.464h-4.464zM98.273 75.364h4.464v4.464h-4.464zM35.782 70.9h4.464v4.464h-4.464zM40.246 70.9h4.464v4.464h-4.464zM40.246 75.364h4.464v4.464h-4.464zM102.737 61.973h4.464v4.464h-4.464z"/><path fill="#0F0F0F" d="M102.737 66.436h4.464V70.9h-4.464zM98.273 66.436h4.464V70.9h-4.464zM98.273 70.9h4.464v4.464h-4.464zM93.81 84.291h4.464v4.464H93.81zM89.346 84.291h4.464v4.464h-4.464zM89.346 79.827h4.464v4.464h-4.464z"/><path fill="#0F0F0F" d="M89.346 88.754h8.927v4.464h-8.927z"/><path fill="#2C2C2C" d="M84.882 84.291h4.464v4.464h-4.464zM75.954 84.291h4.464v4.464h-4.464zM67.027 84.291h4.464v4.464h-4.464zM58.101 84.291h4.464v4.464h-4.464z"/><path fill="#0F0F0F" d="M53.637 84.291h4.464v4.464h-4.464zM49.173 84.291h4.464v4.464h-4.464zM44.709 79.827h4.464v4.464h-4.464z"/><path fill="#2C2C2C" d="M80.419 84.291h4.464v4.464h-4.464z"/><path fill="#0F0F0F" d="M80.419 79.827h4.464v4.464h-4.464zM80.419 88.754h4.464v4.464h-4.464z"/><path fill="#2C2C2C" d="M71.491 84.291h4.464v4.464h-4.464z"/><path fill="#0F0F0F" d="M71.491 79.827h4.464v4.464h-4.464zM71.491 88.754h4.464v4.464h-4.464z"/><path fill="#2C2C2C" d="M62.563 84.291h4.464v4.464h-4.464z"/><path fill="#0F0F0F" d="M62.563 79.827h4.464v4.464h-4.464zM62.563 88.754h4.464v4.464h-4.464z"/><path fill="#CDD1DC" d="M67.027 79.827h4.464v4.464h-4.464zM75.954 79.827h4.464v4.464h-4.464zM49.173 79.827h13.391v4.464H49.173zM67.027 88.754h4.464v4.464h-4.464zM75.954 88.754h4.464v4.464h-4.464zM84.882 79.827h4.464v4.464h-4.464zM84.882 88.754h4.464v4.464h-4.464zM93.81 79.827h4.464v4.464H93.81z"/><path fill="#0F0F0F" d="M40.245 75.364h4.464v4.464h-4.464z"/><path fill="#0F0F0F" d="M40.245 75.364h58.027v4.464H40.245z"/><path fill="#0F0F0F" d="M40.245 79.827h58.027v4.464H40.245zM44.708 84.291h13.391v4.464H44.708z"/><path fill="#0F0F0F" d="M44.708 88.754h44.636v4.464H44.708zM53.636 93.218h44.636v4.464H53.636z"/><path fill="#0F0F0F" d="M49.173 93.218h4.464v4.464h-4.464zM49.173 97.682h44.636v4.464H49.173z"/><path fill="#0F0F0F" d="M53.636 102.145H58.1v4.464h-4.464zM58.101 106.609h31.245v4.464H58.101z"/><path fill="#1B1B1B" d="M80.417 44.118h4.464v4.464h-4.464zM80.417 39.654h4.464v4.464h-4.464zM102.735 44.118h4.464v4.464h-4.464zM84.88 48.582h17.855v4.464H84.88z"/><path fill="#1B1B1B" fill-opacity=".5" d="M84.88 35.191h17.855v4.464H84.88z"/><path fill="#1B1B1B" d="M102.735 39.654h4.464v4.464h-4.464z"/><g filter="url(#c)"><path fill="#FEFDFB" d="M84.137 38.911h5.952v5.952h-5.952z"/></g><path fill="#FEFDFB" fill-opacity=".9" d="M84.88 39.654h4.464v4.464H84.88z"/><g filter="url(#d)"><path fill="#FEFDFB" d="M84.137 43.374h5.952v5.952h-5.952z"/></g><path fill="#FEFDFB" fill-opacity=".9" d="M84.88 44.118h4.464v4.464H84.88z"/><g filter="url(#e)"><path fill="#FEFDFB" d="M88.601 38.911h5.952v5.952h-5.952z"/></g><path fill="#FEFDFB" fill-opacity=".9" d="M89.344 39.654h4.464v4.464h-4.464z"/><g filter="url(#f)"><path fill="#FEFDFB" d="M93.065 38.911h5.952v5.952h-5.952z"/></g><path fill="#FEFDFB" fill-opacity=".9" d="M93.809 39.654h4.464v4.464h-4.464z"/><g filter="url(#g)"><path fill="#FEFDFB" d="M97.528 38.911h5.952v5.952h-5.952z"/></g><path fill="#FEFDFB" fill-opacity=".9" d="M98.272 39.654h4.464v4.464h-4.464z"/><g filter="url(#h)"><path fill="#FEFDFB" d="M88.601 43.374h5.952v5.952h-5.952z"/></g><path fill="#FEFDFB" fill-opacity=".9" d="M89.344 44.118h4.464v4.464h-4.464z"/><g filter="url(#i)"><path fill="#FEFDFB" d="M93.065 43.374h5.952v5.952h-5.952z"/></g><path fill="#FEFDFB" fill-opacity=".9" d="M93.809 44.118h4.464v4.464h-4.464z"/><g filter="url(#j)"><path fill="#FEFDFB" d="M97.528 43.374h5.952v5.952h-5.952z"/></g><path fill="#FEFDFB" fill-opacity=".9" d="M98.272 44.118h4.464v4.464h-4.464z"/><path fill="#1B1B1B" d="M44.71 44.118h4.464v4.464H44.71zM44.71 39.654h4.464v4.464H44.71zM71.491 44.118h4.464v4.464h-4.464zM49.173 48.582h22.318v4.464H49.173z"/><path fill="#1B1B1B" fill-opacity=".5" d="M49.173 35.191h22.318v4.464H49.173z"/><path fill="#1B1B1B" d="M71.491 39.654h4.464v4.464h-4.464z"/><g filter="url(#k)"><path fill="#FEFDFB" d="M48.43 38.911h5.952v5.952H48.43z"/></g><path fill="#FEFDFB" fill-opacity=".9" d="M49.175 39.654h4.464v4.464h-4.464z"/><g filter="url(#l)"><path fill="#FEFDFB" d="M48.43 43.374h5.952v5.952H48.43z"/></g><path fill="#FEFDFB" fill-opacity=".9" d="M49.175 44.118h4.464v4.464h-4.464z"/><g filter="url(#m)"><path fill="#FEFDFB" d="M52.894 38.911h5.952v5.952h-5.952z"/></g><path fill="#FEFDFB" fill-opacity=".9" d="M53.637 39.654h4.464v4.464h-4.464z"/><g filter="url(#n)"><path fill="#FEFDFB" d="M57.357 38.911h5.952v5.952h-5.952z"/></g><path fill="#FEFDFB" fill-opacity=".9" d="M58.102 39.654h4.464v4.464h-4.464z"/><g filter="url(#o)"><path fill="#FEFDFB" d="M61.822 38.911h5.952v5.952h-5.952z"/></g><path fill="#FEFDFB" fill-opacity=".9" d="M62.565 39.654h4.464v4.464h-4.464z"/><g filter="url(#p)"><path fill="#FEFDFB" d="M66.284 38.911h5.952v5.952h-5.952z"/></g><path fill="#FEFDFB" fill-opacity=".9" d="M67.027 39.654h4.464v4.464h-4.464z"/><g filter="url(#q)"><path fill="#FEFDFB" d="M52.894 43.374h5.952v5.952h-5.952z"/></g><path fill="#FEFDFB" fill-opacity=".9" d="M53.637 44.118h4.464v4.464h-4.464z"/><g filter="url(#r)"><path fill="#FEFDFB" d="M57.357 43.374h5.952v5.952h-5.952z"/></g><path fill="#FEFDFB" fill-opacity=".9" d="M58.102 44.118h4.464v4.464h-4.464z"/><g filter="url(#s)"><path fill="#FEFDFB" d="M61.822 43.374h5.952v5.952h-5.952z"/></g><path fill="#FEFDFB" fill-opacity=".9" d="M62.565 44.118h4.464v4.464h-4.464z"/><g filter="url(#t)"><path fill="#FEFDFB" d="M66.284 43.374h5.952v5.952h-5.952z"/></g><path fill="#FEFDFB" fill-opacity=".9" d="M67.027 44.118h4.464v4.464h-4.464z"/><path fill="#0A3656" d="M26.855 12.873h4.464v4.464h-4.464z"/><path fill="#0A3656" d="M31.318 12.873h4.464v4.464h-4.464z"/><path fill="#0A3656" d="M35.782 12.873h4.464v4.464h-4.464zM40.246 12.873h4.464v4.464h-4.464z"/><path fill="#0A3656" d="M44.709 12.873h4.464v4.464h-4.464zM49.173 12.873h4.464v4.464h-4.464zM53.637 12.873h4.464v4.464h-4.464zM58.101 12.873h4.464v4.464h-4.464z"/><path fill="#0A3656" d="M62.563 12.873h4.464v4.464h-4.464zM67.027 12.873h4.464v4.464h-4.464zM71.491 12.873h13.391v4.464H71.491zM84.882 12.873h4.464v4.464h-4.464zM89.346 17.336h4.464V21.8h-4.464zM80.419 21.8h4.464v4.464h-4.464zM98.273 21.8h4.464v4.464h-4.464z"/><path fill="#0A3656" d="M93.81 21.8h4.464v4.464H93.81zM89.346 21.8h4.464v4.464h-4.464zM84.882 21.8h4.464v4.464h-4.464z"/><path fill="#0B1C29" d="M93.81 17.336h4.464V21.8H93.81zM89.346 12.873h4.464v4.464h-4.464z"/><path fill="#0B1C29" d="M93.81 12.873h4.464v4.464H93.81z"/><path fill="#0A3656" d="M40.246 17.336h13.391V21.8H40.246z"/><path fill="#B1B1BA" d="M53.637 17.336h4.464V21.8h-4.464z"/><path fill="#EAEAE9" d="M58.101 17.336h4.464V21.8h-4.464z"/><path fill="#B1B1BA" d="M62.563 17.336h4.464V21.8h-4.464zM67.027 17.336h4.464V21.8h-4.464zM71.491 17.336h4.464V21.8h-4.464zM75.954 21.8h4.464v4.464h-4.464zM80.419 21.8h4.464v4.464h-4.464zM80.419 17.336h4.464V21.8h-4.464z"/><path fill="#B1B1BA" d="M84.882 17.336h4.464V21.8h-4.464zM84.882 21.8h4.464v4.464h-4.464z"/><path fill="#656970" d="M67.027 21.8h4.464v4.464h-4.464zM71.491 21.8h4.464v4.464h-4.464zM75.954 17.336h4.464V21.8h-4.464z"/><path fill="#B1B1BA" d="M62.563 21.8h4.464v4.464h-4.464z"/><path fill="#EAEAE9" d="M58.101 21.8h4.464v4.464h-4.464z"/><path fill="#B1B1BA" d="M53.637 21.8h4.464v4.464h-4.464z"/><path fill="#0A3656" d="M35.782 17.336h4.464V21.8h-4.464z"/><path fill="#0B1C29" d="M31.318 17.336h4.464V21.8h-4.464z"/><path fill="#0B1C29" d="M26.855 12.873h4.464v4.464h-4.464z"/><path fill="#0B1C29" d="M26.855 17.336h4.464V21.8h-4.464zM22.391 17.336h4.464V21.8h-4.464z"/><path fill="#0B1C29" d="M17.928 17.336h4.464V21.8h-4.464z"/><path fill="#0B1C29" d="M13.465 12.873h4.464v4.464h-4.464z"/><path fill="#0B1C29" d="M13.465 8.409h4.464v4.464h-4.464zM9 3.945h4.464v4.464H9zM31.318 21.8h4.464v4.464h-4.464z"/><path fill="#0B1C29" d="M35.782 21.8h4.464v4.464h-4.464z"/><path fill="#0B1C29" d="M35.782 26.264h4.464v4.464h-4.464zM40.246 21.8h13.391v4.464H40.246z"/><path fill="#0B1C29" d="M40.246 26.264h4.464v4.464h-4.464z"/><path fill="#2F3840" d="M44.709 26.264h4.464v4.464h-4.464z"/><path fill="#2F3840" d="M40.246 26.264h4.464v4.464h-4.464zM35.782 26.264h4.464v4.464h-4.464zM49.173 26.264h4.464v4.464h-4.464zM53.637 26.264h4.464v4.464h-4.464zM58.101 26.264h4.464v4.464h-4.464z"/><path fill="#2F3840" d="M62.563 26.264h4.464v4.464h-4.464zM67.027 26.264h4.464v4.464h-4.464zM71.491 26.264h4.464v4.464h-4.464z"/><path fill="#2F3840" d="M75.954 26.264h4.464v4.464h-4.464zM80.419 26.264h4.464v4.464h-4.464z"/><path fill="#2F3840" d="M84.882 26.264h4.464v4.464h-4.464zM89.346 26.264h4.464v4.464h-4.464zM93.81 26.264h4.464v4.464H93.81z"/><path fill="#2F3840" d="M98.273 26.264h4.464v4.464h-4.464zM93.81 12.873h4.464v4.464H93.81z"/><path fill="#0B1C29" d="M26.855 21.8h4.464v4.464h-4.464zM22.391 21.8h4.464v4.464h-4.464z"/><path fill="#0B1C29" d="M17.928 26.264h4.464v4.464h-4.464z"/><path fill="#0B1C29" d="M13.465 30.727h4.464v4.464h-4.464zM9 35.191h4.464v4.464H9z"/></g></g><defs><filter id="c" width="13.391" height="13.391" x="80.417" y="35.191" color-interpolation-filters="sRGB" filterUnits="userSpaceOnUse"><feFlood flood-opacity="0" result="BackgroundImageFix"/><feBlend in="SourceGraphic" in2="BackgroundImageFix" result="shape"/><feGaussianBlur result="effect1_foregroundBlur_505_32" stdDeviation="1.86"/></filter><filter id="d" width="13.391" height="13.391" x="80.417" y="39.654" color-interpolation-filters="sRGB" filterUnits="userSpaceOnUse"><feFlood flood-opacity="0" result="BackgroundImageFix"/><feBlend in="SourceGraphic" in2="BackgroundImageFix" result="shape"/><feGaussianBlur result="effect1_foregroundBlur_505_32" stdDeviation="1.86"/></filter><filter id="e" width="13.391" height="13.391" x="84.881" y="35.191" color-interpolation-filters="sRGB" filterUnits="userSpaceOnUse"><feFlood flood-opacity="0" result="BackgroundImageFix"/><feBlend in="SourceGraphic" in2="BackgroundImageFix" result="shape"/><feGaussianBlur result="effect1_foregroundBlur_505_32" stdDeviation="1.86"/></filter><filter id="f" width="13.391" height="13.391" x="89.346" y="35.191" color-interpolation-filters="sRGB" filterUnits="userSpaceOnUse"><feFlood flood-opacity="0" result="BackgroundImageFix"/><feBlend in="SourceGraphic" in2="BackgroundImageFix" result="shape"/><feGaussianBlur result="effect1_foregroundBlur_505_32" stdDeviation="1.86"/></filter><filter id="g" width="13.391" height="13.391" x="93.809" y="35.191" color-interpolation-filters="sRGB" filterUnits="userSpaceOnUse"><feFlood flood-opacity="0" result="BackgroundImageFix"/><feBlend in="SourceGraphic" in2="BackgroundImageFix" result="shape"/><feGaussianBlur result="effect1_foregroundBlur_505_32" stdDeviation="1.86"/></filter><filter id="h" width="13.391" height="13.391" x="84.881" y="39.654" color-interpolation-filters="sRGB" filterUnits="userSpaceOnUse"><feFlood flood-opacity="0" result="BackgroundImageFix"/><feBlend in="SourceGraphic" in2="BackgroundImageFix" result="shape"/><feGaussianBlur result="effect1_foregroundBlur_505_32" stdDeviation="1.86"/></filter><filter id="i" width="13.391" height="13.391" x="89.346" y="39.654" color-interpolation-filters="sRGB" filterUnits="userSpaceOnUse"><feFlood flood-opacity="0" result="BackgroundImageFix"/><feBlend in="SourceGraphic" in2="BackgroundImageFix" result="shape"/><feGaussianBlur result="effect1_foregroundBlur_505_32" stdDeviation="1.86"/></filter><filter id="j" width="13.391" height="13.391" x="93.809" y="39.654" color-interpolation-filters="sRGB" filterUnits="userSpaceOnUse"><feFlood flood-opacity="0" result="BackgroundImageFix"/><feBlend in="SourceGraphic" in2="BackgroundImageFix" result="shape"/><feGaussianBlur result="effect1_foregroundBlur_505_32" stdDeviation="1.86"/></filter><filter id="k" width="13.391" height="13.391" x="44.71" y="35.191" color-interpolation-filters="sRGB" filterUnits="userSpaceOnUse"><feFlood flood-opacity="0" result="BackgroundImageFix"/><feBlend in="SourceGraphic" in2="BackgroundImageFix" result="shape"/><feGaussianBlur result="effect1_foregroundBlur_505_32" stdDeviation="1.86"/></filter><filter id="l" width="13.391" height="13.391" x="44.71" y="39.654" color-interpolation-filters="sRGB" filterUnits="userSpaceOnUse"><feFlood flood-opacity="0" result="BackgroundImageFix"/><feBlend in="SourceGraphic" in2="BackgroundImageFix" result="shape"/><feGaussianBlur result="effect1_foregroundBlur_505_32" stdDeviation="1.86"/></filter><filter id="m" width="13.391" height="13.391" x="49.174" y="35.191" color-interpolation-filters="sRGB" filterUnits="userSpaceOnUse"><feFlood flood-opacity="0" result="BackgroundImageFix"/><feBlend in="SourceGraphic" in2="BackgroundImageFix" result="shape"/><feGaussianBlur result="effect1_foregroundBlur_505_32" stdDeviation="1.86"/></filter><filter id="n" width="13.391" height="13.391" x="53.638" y="35.191" color-interpolation-filters="sRGB" filterUnits="userSpaceOnUse"><feFlood flood-opacity="0" result="BackgroundImageFix"/><feBlend in="SourceGraphic" in2="BackgroundImageFix" result="shape"/><feGaussianBlur result="effect1_foregroundBlur_505_32" stdDeviation="1.86"/></filter><filter id="o" width="13.391" height="13.391" x="58.103" y="35.191" color-interpolation-filters="sRGB" filterUnits="userSpaceOnUse"><feFlood flood-opacity="0" result="BackgroundImageFix"/><feBlend in="SourceGraphic" in2="BackgroundImageFix" result="shape"/><feGaussianBlur result="effect1_foregroundBlur_505_32" stdDeviation="1.86"/></filter><filter id="p" width="13.391" height="13.391" x="62.565" y="35.191" color-interpolation-filters="sRGB" filterUnits="userSpaceOnUse"><feFlood flood-opacity="0" result="BackgroundImageFix"/><feBlend in="SourceGraphic" in2="BackgroundImageFix" result="shape"/><feGaussianBlur result="effect1_foregroundBlur_505_32" stdDeviation="1.86"/></filter><filter id="q" width="13.391" height="13.391" x="49.174" y="39.654" color-interpolation-filters="sRGB" filterUnits="userSpaceOnUse"><feFlood flood-opacity="0" result="BackgroundImageFix"/><feBlend in="SourceGraphic" in2="BackgroundImageFix" result="shape"/><feGaussianBlur result="effect1_foregroundBlur_505_32" stdDeviation="1.86"/></filter><filter id="r" width="13.391" height="13.391" x="53.638" y="39.654" color-interpolation-filters="sRGB" filterUnits="userSpaceOnUse"><feFlood flood-opacity="0" result="BackgroundImageFix"/><feBlend in="SourceGraphic" in2="BackgroundImageFix" result="shape"/><feGaussianBlur result="effect1_foregroundBlur_505_32" stdDeviation="1.86"/></filter><filter id="s" width="13.391" height="13.391" x="58.103" y="39.654" color-interpolation-filters="sRGB" filterUnits="userSpaceOnUse"><feFlood flood-opacity="0" result="BackgroundImageFix"/><feBlend in="SourceGraphic" in2="BackgroundImageFix" result="shape"/><feGaussianBlur result="effect1_foregroundBlur_505_32" stdDeviation="1.86"/></filter><filter id="t" width="13.391" height="13.391" x="62.565" y="39.654" color-interpolation-filters="sRGB" filterUnits="userSpaceOnUse"><feFlood flood-opacity="0" result="BackgroundImageFix"/><feBlend in="SourceGraphic" in2="BackgroundImageFix" result="shape"/><feGaussianBlur result="effect1_foregroundBlur_505_32" stdDeviation="1.86"/></filter><clipPath id="a"><rect width="120" height="120" fill="#fff" rx="3"/></clipPath><clipPath id="b"><path fill="#fff" d="M0 0h120v120H0z"/></clipPath></defs></svg>